<svg width="886" height="214" viewBox="0 0 886 214" fill="none" xmlns="http://www.w3.org/2000/svg">
<path d="M42.6058 42.9775H127.818V85.5838H42.6058V42.9775Z" fill="white"/>
<path d="M85.2121 170.796H127.818V213.403H85.2121V170.796Z" fill="white"/>
<path d="M42.6065 128.19H42.6066H85.2129V170.796H42.6066H0.000282358V128.19H0.000196274V85.5837H42.6065V128.19Z" fill="white"/>
<path d="M-0.000831604 0.371094H42.6055V42.9774H-0.000831604V0.371094Z" fill="white"/>
<path d="M218.6 76.9265C218.6 76.5422 218.734 76.2156 219.003 75.9467C219.272 75.6777 219.599 75.5432 219.983 75.5432H233.47C233.854 75.5432 234.181 75.6777 234.449 75.9467C234.718 76.2156 234.853 76.5422 234.853 76.9265V154.848C234.853 155.233 234.718 155.559 234.449 155.828C234.181 156.097 233.854 156.232 233.47 156.232H220.444C219.676 156.232 219.138 155.924 218.83 155.31L188.976 105.974C188.822 105.744 188.668 105.648 188.515 105.686C188.361 105.725 188.284 105.897 188.284 106.205L188.515 154.848C188.515 155.233 188.38 155.559 188.111 155.828C187.842 156.097 187.516 156.232 187.131 156.232H173.645C173.261 156.232 172.934 156.097 172.665 155.828C172.396 155.559 172.262 155.233 172.262 154.848V76.9265C172.262 76.5422 172.396 76.2156 172.665 75.9467C172.934 75.6777 173.261 75.5432 173.645 75.5432H186.67C187.439 75.5432 187.977 75.8506 188.284 76.4654L218.024 125.57C218.177 125.801 218.331 125.897 218.485 125.858C218.638 125.82 218.715 125.647 218.715 125.34L218.6 76.9265ZM284.88 75.428C289.952 75.428 294.409 76.4654 298.251 78.5402C302.093 80.6151 305.071 83.5545 307.184 87.3583C309.298 91.1622 310.354 95.5232 310.354 100.441C310.354 105.283 309.259 109.548 307.069 113.236C304.879 116.925 301.805 119.787 297.848 121.824C293.89 123.86 289.337 124.878 284.188 124.878H267.82C267.436 124.878 267.244 125.071 267.244 125.455V154.848C267.244 155.233 267.109 155.559 266.84 155.828C266.571 156.097 266.245 156.232 265.86 156.232H252.374C251.99 156.232 251.663 156.097 251.394 155.828C251.125 155.559 250.991 155.233 250.991 154.848V76.8112C250.991 76.427 251.125 76.1004 251.394 75.8314C251.663 75.5625 251.99 75.428 252.374 75.428H284.88ZM282.459 111.853C285.994 111.853 288.837 110.835 290.989 108.798C293.141 106.762 294.217 104.092 294.217 100.787C294.217 97.406 293.141 94.6779 290.989 92.6031C288.837 90.5282 285.994 89.4908 282.459 89.4908H267.82C267.436 89.4908 267.244 89.6829 267.244 90.0672V111.277C267.244 111.661 267.436 111.853 267.82 111.853H282.459ZM352.082 157.154C346.088 157.154 340.824 155.982 336.29 153.638C331.756 151.294 328.259 148.009 325.8 143.783C323.341 139.556 322.112 134.676 322.112 129.143V102.516C322.112 96.9833 323.341 92.1036 325.8 87.8771C328.259 83.6505 331.756 80.3846 336.29 78.0792C340.824 75.7738 346.088 74.6211 352.082 74.6211C357.999 74.6211 363.205 75.7161 367.701 77.9063C372.196 80.0964 375.693 83.2087 378.19 87.2431C380.688 91.2775 381.936 95.9459 381.936 101.248C381.936 101.94 381.475 102.363 380.553 102.516L367.067 103.323H366.836C366.068 103.323 365.683 102.9 365.683 102.055C365.683 97.9823 364.435 94.7164 361.937 92.2573C359.44 89.7982 356.155 88.5687 352.082 88.5687C347.932 88.5687 344.608 89.7982 342.111 92.2573C339.613 94.7164 338.365 97.9823 338.365 102.055V129.835C338.365 133.831 339.613 137.059 342.111 139.518C344.608 141.977 347.932 143.206 352.082 143.206C356.155 143.206 359.44 141.977 361.937 139.518C364.435 137.059 365.683 133.831 365.683 129.835C365.683 128.99 366.145 128.567 367.067 128.567L380.553 129.143C380.937 129.143 381.264 129.259 381.533 129.489C381.802 129.72 381.936 129.989 381.936 130.296C381.936 135.599 380.688 140.286 378.19 144.359C375.693 148.432 372.196 151.583 367.701 153.811C363.205 156.04 357.999 157.154 352.082 157.154ZM471.385 114.158C470.924 114.389 470.924 114.62 471.385 114.85C478.686 118.616 482.336 124.878 482.336 133.639C482.336 141.093 479.8 146.722 474.728 150.526C469.656 154.33 463.009 156.232 454.787 156.232H424.932C424.548 156.232 424.221 156.097 423.952 155.828C423.683 155.559 423.549 155.233 423.549 154.848V76.9265C423.549 76.5422 423.683 76.2156 423.952 75.9467C424.221 75.6777 424.548 75.5432 424.932 75.5432H453.864C472.077 75.5432 481.183 82.9205 481.183 97.6749C481.183 105.36 477.917 110.854 471.385 114.158ZM440.378 89.4908C439.994 89.4908 439.802 89.6829 439.802 90.0672V108.049C439.802 108.433 439.994 108.626 440.378 108.626H453.864C457.476 108.626 460.281 107.78 462.279 106.09C464.277 104.399 465.276 102.094 465.276 99.1734C465.276 96.1764 464.277 93.8134 462.279 92.0844C460.281 90.3553 457.476 89.4908 453.864 89.4908H440.378ZM454.787 142.169C458.322 142.169 461.088 141.266 463.086 139.46C465.084 137.654 466.083 135.176 466.083 132.025C466.083 128.874 465.084 126.396 463.086 124.59C461.088 122.784 458.283 121.881 454.671 121.881H440.378C439.994 121.881 439.802 122.074 439.802 122.458V141.593C439.802 141.977 439.994 142.169 440.378 142.169H454.787ZM527.637 157.154C521.72 157.154 516.513 156.001 512.018 153.696C507.522 151.39 504.026 148.144 501.528 143.956C499.031 139.767 497.782 134.945 497.782 129.489V76.9265C497.782 76.5422 497.916 76.2156 498.185 75.9467C498.454 75.6777 498.781 75.5432 499.165 75.5432H512.652C513.036 75.5432 513.363 75.6777 513.632 75.9467C513.901 76.2156 514.035 76.5422 514.035 76.9265V129.605C514.035 133.677 515.284 136.963 517.781 139.46C520.279 141.958 523.564 143.206 527.637 143.206C531.71 143.206 534.995 141.958 537.492 139.46C539.99 136.963 541.239 133.677 541.239 129.605V76.9265C541.239 76.5422 541.373 76.2156 541.642 75.9467C541.911 75.6777 542.238 75.5432 542.622 75.5432H556.108C556.492 75.5432 556.819 75.6777 557.088 75.9467C557.357 76.2156 557.491 76.5422 557.491 76.9265V129.489C557.491 134.945 556.243 139.767 553.745 143.956C551.248 148.144 547.751 151.39 543.256 153.696C538.76 156.001 533.554 157.154 527.637 157.154ZM575.589 156.232C575.205 156.232 574.878 156.097 574.609 155.828C574.34 155.559 574.206 155.233 574.206 154.848V76.9265C574.206 76.5422 574.34 76.2156 574.609 75.9467C574.878 75.6777 575.205 75.5432 575.589 75.5432H589.075C589.459 75.5432 589.786 75.6777 590.055 75.9467C590.324 76.2156 590.458 76.5422 590.458 76.9265V154.848C590.458 155.233 590.324 155.559 590.055 155.828C589.786 156.097 589.459 156.232 589.075 156.232H575.589ZM609.247 156.232C608.863 156.232 608.537 156.097 608.268 155.828C607.999 155.559 607.864 155.233 607.864 154.848V76.9265C607.864 76.5422 607.999 76.2156 608.268 75.9467C608.537 75.6777 608.863 75.5432 609.247 75.5432H622.734C623.118 75.5432 623.445 75.6777 623.714 75.9467C623.983 76.2156 624.117 76.5422 624.117 76.9265V141.708C624.117 142.092 624.309 142.284 624.693 142.284H662.386C662.771 142.284 663.097 142.419 663.366 142.688C663.635 142.957 663.77 143.283 663.77 143.667V154.848C663.77 155.233 663.635 155.559 663.366 155.828C663.097 156.097 662.771 156.232 662.386 156.232H609.247ZM678.524 156.232C678.14 156.232 677.813 156.097 677.544 155.828C677.275 155.559 677.141 155.233 677.141 154.848V76.9265C677.141 76.5422 677.275 76.2156 677.544 75.9467C677.813 75.6777 678.14 75.5432 678.524 75.5432H707.341C713.105 75.5432 718.158 76.5615 722.499 78.5979C726.841 80.6343 730.203 83.4968 732.585 87.1854C734.968 90.8741 736.159 95.139 736.159 99.9803V131.795C736.159 136.636 734.968 140.901 732.585 144.59C730.203 148.278 726.841 151.141 722.499 153.177C718.158 155.213 713.105 156.232 707.341 156.232H678.524ZM693.394 141.708C693.394 142.092 693.586 142.284 693.97 142.284H707.918C711.453 142.284 714.315 141.093 716.505 138.711C718.696 136.329 719.829 133.139 719.906 129.143V102.632C719.906 98.6355 718.811 95.4464 716.621 93.0642C714.431 90.6819 711.491 89.4908 707.803 89.4908H693.97C693.586 89.4908 693.394 89.6829 693.394 90.0672V141.708ZM807.741 88.1076C807.741 88.4918 807.607 88.8184 807.338 89.0874C807.069 89.3563 806.742 89.4908 806.358 89.4908H768.549C768.165 89.4908 767.973 89.6829 767.973 90.0672V107.934C767.973 108.318 768.165 108.51 768.549 108.51H793.332C793.717 108.51 794.043 108.645 794.312 108.914C794.581 109.183 794.716 109.509 794.716 109.893V121.075C794.716 121.459 794.581 121.785 794.312 122.054C794.043 122.323 793.717 122.458 793.332 122.458H768.549C768.165 122.458 767.973 122.65 767.973 123.034V141.708C767.973 142.092 768.165 142.284 768.549 142.284H806.358C806.742 142.284 807.069 142.419 807.338 142.688C807.607 142.957 807.741 143.283 807.741 143.667V154.848C807.741 155.233 807.607 155.559 807.338 155.828C807.069 156.097 806.742 156.232 806.358 156.232H753.103C752.719 156.232 752.393 156.097 752.124 155.828C751.855 155.559 751.72 155.233 751.72 154.848V76.9265C751.72 76.5422 751.855 76.2156 752.124 75.9467C752.393 75.6777 752.719 75.5432 753.103 75.5432H806.358C806.742 75.5432 807.069 75.6777 807.338 75.9467C807.607 76.2156 807.741 76.5422 807.741 76.9265V88.1076ZM866.644 156.232C865.875 156.232 865.337 155.886 865.03 155.194L850.621 123.265C850.467 122.957 850.237 122.804 849.929 122.804H839.209C838.825 122.804 838.633 122.996 838.633 123.38V154.848C838.633 155.233 838.499 155.559 838.23 155.828C837.961 156.097 837.634 156.232 837.25 156.232H823.763C823.379 156.232 823.053 156.097 822.784 155.828C822.515 155.559 822.38 155.233 822.38 154.848V76.9265C822.38 76.5422 822.515 76.2156 822.784 75.9467C823.053 75.6777 823.379 75.5432 823.763 75.5432H856.73C861.649 75.5432 865.971 76.5422 869.698 78.5402C873.425 80.5382 876.307 83.3816 878.343 87.0702C880.38 90.7588 881.398 95.0237 881.398 99.8651C881.398 105.091 880.092 109.567 877.479 113.294C874.866 117.021 871.216 119.653 866.528 121.19C866.144 121.344 866.029 121.613 866.182 121.997L881.859 154.618C882.013 154.925 882.09 155.156 882.09 155.31C882.09 155.924 881.667 156.232 880.822 156.232H866.644ZM839.209 89.4908C838.825 89.4908 838.633 89.6829 838.633 90.0672V109.778C838.633 110.162 838.825 110.355 839.209 110.355H854.31C857.537 110.355 860.169 109.394 862.206 107.473C864.242 105.552 865.26 103.054 865.26 99.9803C865.26 96.9065 864.242 94.3898 862.206 92.4302C860.169 90.4706 857.537 89.4908 854.31 89.4908H839.209Z" fill="white"/>
<path d="M463.782 193.124V178.408H469.354V175.372H455.156V178.408H460.728V193.124H463.782ZM482.379 193.124L483.743 189.57H491.716L493.08 193.124H496.327L489.468 175.372H485.972L479.132 193.124H482.379ZM484.915 186.534L487.72 179.253L490.544 186.534H484.915ZM508.122 193.124H521.321V190.089H511.158V175.372H508.122V193.124ZM536.152 193.124V188.456L538.765 185.67L545.739 193.124H549.658L540.724 183.557L548.39 175.372H544.471L536.152 184.267V175.372H533.117V193.124H536.152ZM585.276 193.124V178.408H590.847V175.372H576.65V178.408H582.221V193.124H585.276ZM611.058 190.338C606.178 190.338 605.198 189.32 605.198 184.248C605.198 179.138 606.197 178.158 611.058 178.158C615.899 178.158 616.879 179.176 616.879 184.248C616.879 189.339 615.88 190.338 611.058 190.338ZM602.144 184.248C602.144 190.761 604.68 193.374 611.058 193.374C617.321 193.374 619.934 190.895 619.934 184.248C619.934 177.678 617.398 175.104 611.058 175.104C604.756 175.104 602.144 177.601 602.144 184.248ZM655.552 193.124V178.408H661.142V175.372H646.926V178.408H652.516V193.124H655.552ZM675.974 193.124V185.766H685.868V193.124H688.922V175.372H685.868V182.73H675.974V175.372H672.938V193.124H675.974ZM700.718 193.124H713.897V190.089H703.754V185.766H711.361V182.73H703.754V178.408H713.897V175.372H700.718V193.124ZM743.944 193.124V185.766H751.552V182.73H743.944V178.408H754.088V175.372H740.889V193.124H743.944ZM778.198 175.372V185.516C778.198 189.589 777.43 190.338 773.549 190.338C769.649 190.338 768.938 189.551 768.938 185.516V175.372H765.884V185.516C765.884 190.934 768.055 193.374 773.549 193.374C778.871 193.374 781.234 191.145 781.234 185.516V175.372H778.198ZM801.656 193.124V178.408H807.246V175.372H793.03V178.408H798.62V193.124H801.656ZM831.337 175.372V185.516C831.337 189.589 830.588 190.338 826.707 190.338C822.788 190.338 822.077 189.551 822.077 185.516V175.372H819.042V185.516C819.042 190.934 821.194 193.374 826.707 193.374C832.029 193.374 834.392 191.145 834.392 185.516V175.372H831.337ZM849.223 193.124V187.034H853.7L857.119 193.124H860.616L857.023 186.707C859.233 186.016 860.424 184.191 860.424 181.194C860.424 177.428 858.541 175.372 854.583 175.372H846.188V193.124H849.223ZM849.223 183.998V178.408H854.583C857.004 178.408 857.369 178.811 857.369 181.194C857.369 183.614 856.966 183.998 854.583 183.998H849.223ZM872.412 193.124H885.61V190.089H875.466V185.766H883.074V182.73H875.466V178.408H885.61V175.372H872.412V193.124Z" fill="white"/>
</svg>
