<?xml version="1.0" encoding="UTF-8" standalone="no" ?>
<!DOCTYPE svg PUBLIC "-//W3C//DTD SVG 1.1//EN" "http://www.w3.org/Graphics/SVG/1.1/DTD/svg11.dtd">
<svg xmlns="http://www.w3.org/2000/svg" xmlns:xlink="http://www.w3.org/1999/xlink" version="1.1" width="1280" height="1024" viewBox="0 0 1280 1024" xml:space="preserve">
<desc>Created with Fabric.js 5.3.0</desc>
<defs>
</defs>
<g transform="matrix(1 0 0 1 640 512)" id="background-logo"  >
<rect style="stroke: none; stroke-width: 0; stroke-dasharray: none; stroke-linecap: butt; stroke-dashoffset: 0; stroke-linejoin: miter; stroke-miterlimit: 4; fill: rgb(255,255,255); fill-opacity: 0; fill-rule: nonzero; opacity: 1;"  paint-order="stroke"  x="-640" y="-512" rx="0" ry="0" width="1280" height="1024" />
</g>
<g transform="matrix(-3.2842392906367848 0 0 3.2842392906367848 639.4813769538625 511.8868458808428)" id="logo-logo"  >
<g style=""  paint-order="stroke"   >
		<g transform="matrix(1.4122981892228001 0 0 1.4122981892228001 -21.68469042647331 -42.66370600806724)"  >
<rect style="stroke: none; stroke-width: 0; stroke-dasharray: none; stroke-linecap: butt; stroke-dashoffset: 0; stroke-linejoin: miter; stroke-miterlimit: 4; fill: rgb(255,255,255); fill-rule: nonzero; opacity: 1;"  paint-order="stroke"  x="-30.2086792" y="-15.1043396" rx="0" ry="0" width="60.4173584" height="30.2086792" />
</g>
		<g transform="matrix(1.4122981892228001 0 0 1.4122981892228001 -43.01678062598785 85.32736894103965)"  >
<rect style="stroke: none; stroke-width: 0; stroke-dasharray: none; stroke-linecap: butt; stroke-dashoffset: 0; stroke-linejoin: miter; stroke-miterlimit: 4; fill: rgb(255,255,255); fill-rule: nonzero; opacity: 1;"  paint-order="stroke"  x="-15.1043396" y="-15.1043396" rx="0" ry="0" width="30.2086792" height="30.2086792" />
</g>
		<g transform="matrix(1.4122981892228001 0 0 1.4122981892228001 20.97875691918057 21.331874541580987)"  >
<polygon style="stroke: none; stroke-width: 1; stroke-dasharray: none; stroke-linecap: butt; stroke-dashoffset: 0; stroke-linejoin: miter; stroke-miterlimit: 4; fill: rgb(255,255,255); fill-rule: nonzero; opacity: 1;"  paint-order="stroke"  points="0.00003054999999108077,2.842171e-14 -0.00003054999999108077,2.842171e-14 -30.208709749999997,2.842171e-14 -30.208709749999997,30.208679200000006 -0.00003054999999108077,30.208679200000006 30.208648649999986,30.208679200000006 30.208648649999986,2.842171e-14 30.208709749999997,2.842171e-14 30.208709749999997,-30.208679199999978 0.00003054999999108077,-30.208679199999978 " />
</g>
		<g transform="matrix(1.4122981892228001 0 0 1.4122981892228001 42.310803972985354 -85.32736894103968)"  >
<rect style="stroke: none; stroke-width: 0; stroke-dasharray: none; stroke-linecap: butt; stroke-dashoffset: 0; stroke-linejoin: miter; stroke-miterlimit: 4; fill: rgb(255,255,255); fill-rule: nonzero; opacity: 1;"  paint-order="stroke"  x="-15.1043396" y="-15.1043396" rx="0" ry="0" width="30.2086792" height="30.2086792" />
</g>
</g>
</g>
</svg>