<?xml version="1.0" encoding="UTF-8" standalone="no" ?>
<!DOCTYPE svg PUBLIC "-//W3C//DTD SVG 1.1//EN" "http://www.w3.org/Graphics/SVG/1.1/DTD/svg11.dtd">
<svg xmlns="http://www.w3.org/2000/svg" xmlns:xlink="http://www.w3.org/1999/xlink" version="1.1" width="1280" height="1024" viewBox="0 0 1280 1024" xml:space="preserve">
<desc>Created with Fabric.js 5.3.0</desc>
<defs>
</defs>
<g transform="matrix(1 0 0 1 640 512)" id="background-logo"  >
<rect style="stroke: none; stroke-width: 0; stroke-dasharray: none; stroke-linecap: butt; stroke-dashoffset: 0; stroke-linejoin: miter; stroke-miterlimit: 4; fill: rgb(255,255,255); fill-opacity: 0; fill-rule: nonzero; opacity: 1;"  paint-order="stroke"  x="-640" y="-512" rx="0" ry="0" width="1280" height="1024" />
</g>
<g transform="matrix(-0.9986554976535844 0 0 0.9986554976535844 260.2275481405357 511.8868458808428)" id="logo-logo"  >
<g style=""  paint-order="stroke"   >
		<g transform="matrix(1.4122981892228001 0 0 1.4122981892228001 -21.68469042647331 -42.66370600806724)"  >
<rect style="stroke: none; stroke-width: 0; stroke-dasharray: none; stroke-linecap: butt; stroke-dashoffset: 0; stroke-linejoin: miter; stroke-miterlimit: 4; fill: rgb(255,255,255); fill-rule: nonzero; opacity: 1;"  paint-order="stroke"  x="-30.2086792" y="-15.1043396" rx="0" ry="0" width="60.4173584" height="30.2086792" />
</g>
		<g transform="matrix(1.4122981892228001 0 0 1.4122981892228001 -43.01678062598785 85.32736894103965)"  >
<rect style="stroke: none; stroke-width: 0; stroke-dasharray: none; stroke-linecap: butt; stroke-dashoffset: 0; stroke-linejoin: miter; stroke-miterlimit: 4; fill: rgb(255,255,255); fill-rule: nonzero; opacity: 1;"  paint-order="stroke"  x="-15.1043396" y="-15.1043396" rx="0" ry="0" width="30.2086792" height="30.2086792" />
</g>
		<g transform="matrix(1.4122981892228001 0 0 1.4122981892228001 20.97875691918057 21.331874541580987)"  >
<polygon style="stroke: none; stroke-width: 1; stroke-dasharray: none; stroke-linecap: butt; stroke-dashoffset: 0; stroke-linejoin: miter; stroke-miterlimit: 4; fill: rgb(255,255,255); fill-rule: nonzero; opacity: 1;"  paint-order="stroke"  points="0.00003054999999108077,2.842171e-14 -0.00003054999999108077,2.842171e-14 -30.208709749999997,2.842171e-14 -30.208709749999997,30.208679200000006 -0.00003054999999108077,30.208679200000006 30.208648649999986,30.208679200000006 30.208648649999986,2.842171e-14 30.208709749999997,2.842171e-14 30.208709749999997,-30.208679199999978 0.00003054999999108077,-30.208679199999978 " />
</g>
		<g transform="matrix(1.4122981892228001 0 0 1.4122981892228001 42.310803972985354 -85.32736894103968)"  >
<rect style="stroke: none; stroke-width: 0; stroke-dasharray: none; stroke-linecap: butt; stroke-dashoffset: 0; stroke-linejoin: miter; stroke-miterlimit: 4; fill: rgb(255,255,255); fill-rule: nonzero; opacity: 1;"  paint-order="stroke"  x="-15.1043396" y="-15.1043396" rx="0" ry="0" width="30.2086792" height="30.2086792" />
</g>
</g>
</g>
<g transform="matrix(1.9211538461538462 0 0 1.9211538461538462 723.8471899538789 520.8875846427694)" id="text-logo"  >
<g style=""  paint-order="stroke"   >
		<g transform="matrix(1 0 0 1 0 0)" id="text-logo-path-0"  >
<path style="stroke: none; stroke-width: 0; stroke-dasharray: none; stroke-linecap: butt; stroke-dashoffset: 0; stroke-linejoin: miter; stroke-miterlimit: 4; fill: rgb(255,255,255); fill-rule: nonzero; opacity: 1;"  paint-order="stroke"  transform=" translate(-188.39999999999998, 21)" d="M 27.78 -41.28 Q 27.78 -41.58 27.99 -41.79 Q 28.2 -42 28.5 -42 L 28.5 -42 L 35.52 -42 Q 35.82 -42 36.03 -41.79 Q 36.24 -41.58 36.24 -41.28 L 36.24 -41.28 L 36.24 -0.72 Q 36.24 -0.42 36.03 -0.21 Q 35.82 0 35.52 0 L 35.52 0 L 28.74 0 Q 28.14 0 27.9 -0.48 L 27.9 -0.48 L 12.36 -26.16 Q 12.24 -26.34 12.12 -26.31 Q 12 -26.28 12 -26.04 L 12 -26.04 L 12.12 -0.72 Q 12.12 -0.42 11.91 -0.21 Q 11.7 0 11.4 0 L 11.4 0 L 4.38 0 Q 4.08 0 3.87 -0.21 Q 3.66 -0.42 3.66 -0.72 L 3.66 -0.72 L 3.66 -41.28 Q 3.66 -41.58 3.87 -41.79 Q 4.08 -42 4.38 -42 L 4.38 -42 L 11.16 -42 Q 11.76 -42 12 -41.52 L 12 -41.52 L 27.48 -15.96 Q 27.6 -15.78 27.72 -15.81 Q 27.84 -15.84 27.84 -16.08 L 27.84 -16.08 L 27.78 -41.28 Z M 62.28 -42.06 Q 66.24 -42.06 69.24 -40.44 Q 72.24 -38.82 73.89 -35.85 Q 75.54 -32.88 75.54 -29.04 L 75.54 -29.04 Q 75.54 -25.26 73.83 -22.38 Q 72.12 -19.5 69.03 -17.91 Q 65.94 -16.32 61.92 -16.32 L 61.92 -16.32 L 53.4 -16.32 Q 53.1 -16.32 53.1 -16.02 L 53.1 -16.02 L 53.1 -0.72 Q 53.1 -0.42 52.89 -0.21 Q 52.68 0 52.38 0 L 52.38 0 L 45.36 0 Q 45.06 0 44.85 -0.21 Q 44.64 -0.42 44.64 -0.72 L 44.64 -0.72 L 44.64 -41.34 Q 44.64 -41.64 44.85 -41.85 Q 45.06 -42.06 45.36 -42.06 L 45.36 -42.06 L 62.28 -42.06 Z M 61.02 -23.1 Q 63.78 -23.1 65.46 -24.69 Q 67.14 -26.28 67.14 -28.86 L 67.14 -28.86 Q 67.14 -31.5 65.46 -33.12 Q 63.78 -34.74 61.02 -34.74 L 61.02 -34.74 L 53.4 -34.74 Q 53.1 -34.74 53.1 -34.44 L 53.1 -34.44 L 53.1 -23.4 Q 53.1 -23.1 53.4 -23.1 L 53.4 -23.1 L 61.02 -23.1 Z M 97.26 0.48 Q 92.58 0.48 89.04 -1.35 Q 85.5 -3.18 83.58 -6.48 Q 81.66 -9.78 81.66 -14.1 L 81.66 -14.1 L 81.66 -27.96 Q 81.66 -32.28 83.58 -35.58 Q 85.5 -38.88 89.04 -40.68 Q 92.58 -42.48 97.26 -42.48 L 97.26 -42.48 Q 101.88 -42.48 105.39 -40.77 Q 108.9 -39.06 110.85 -35.91 Q 112.8 -32.76 112.8 -28.62 L 112.8 -28.62 Q 112.8 -28.08 112.08 -27.96 L 112.08 -27.96 L 105.06 -27.54 L 104.94 -27.54 Q 104.34 -27.54 104.34 -28.2 L 104.34 -28.2 Q 104.34 -31.38 102.39 -33.3 Q 100.44 -35.22 97.26 -35.22 L 97.26 -35.22 Q 94.02 -35.22 92.07 -33.3 Q 90.12 -31.38 90.12 -28.2 L 90.12 -28.2 L 90.12 -13.74 Q 90.12 -10.62 92.07 -8.7 Q 94.02 -6.78 97.26 -6.78 L 97.26 -6.78 Q 100.44 -6.78 102.39 -8.7 Q 104.34 -10.62 104.34 -13.74 L 104.34 -13.74 Q 104.34 -14.4 105.06 -14.4 L 105.06 -14.4 L 112.08 -14.1 Q 112.38 -14.1 112.59 -13.92 Q 112.8 -13.74 112.8 -13.5 L 112.8 -13.5 Q 112.8 -9.36 110.85 -6.18 Q 108.9 -3 105.39 -1.26 Q 101.88 0.48 97.26 0.48 L 97.26 0.48 Z M 159.36 -21.9 Q 159 -21.72 159.36 -21.54 L 159.36 -21.54 Q 165.06 -18.6 165.06 -11.76 L 165.06 -11.76 Q 165.06 -5.94 161.1 -2.97 Q 157.14 0 150.72 0 L 150.72 0 L 135.18 0 Q 134.88 0 134.67 -0.21 Q 134.46 -0.42 134.46 -0.72 L 134.46 -0.72 L 134.46 -41.28 Q 134.46 -41.58 134.67 -41.79 Q 134.88 -42 135.18 -42 L 135.18 -42 L 150.24 -42 Q 164.46 -42 164.46 -30.48 L 164.46 -30.48 Q 164.46 -24.48 159.36 -21.9 L 159.36 -21.9 Z M 143.22 -34.74 Q 142.92 -34.74 142.92 -34.44 L 142.92 -34.44 L 142.92 -25.08 Q 142.92 -24.78 143.22 -24.78 L 143.22 -24.78 L 150.24 -24.78 Q 153.06 -24.78 154.62 -26.1 Q 156.18 -27.42 156.18 -29.7 L 156.18 -29.7 Q 156.18 -32.04 154.62 -33.39 Q 153.06 -34.74 150.24 -34.74 L 150.24 -34.74 L 143.22 -34.74 Z M 150.72 -7.32 Q 153.48 -7.32 155.04 -8.73 Q 156.6 -10.14 156.6 -12.6 L 156.6 -12.6 Q 156.6 -15.06 155.04 -16.47 Q 153.48 -17.88 150.66 -17.88 L 150.66 -17.88 L 143.22 -17.88 Q 142.92 -17.88 142.92 -17.58 L 142.92 -17.58 L 142.92 -7.62 Q 142.92 -7.32 143.22 -7.32 L 143.22 -7.32 L 150.72 -7.32 Z M 188.64 0.48 Q 184.02 0.48 180.51 -1.32 Q 177 -3.12 175.05 -6.39 Q 173.1 -9.66 173.1 -13.92 L 173.1 -13.92 L 173.1 -41.28 Q 173.1 -41.58 173.31 -41.79 Q 173.52 -42 173.82 -42 L 173.82 -42 L 180.84 -42 Q 181.14 -42 181.35 -41.79 Q 181.56 -41.58 181.56 -41.28 L 181.56 -41.28 L 181.56 -13.86 Q 181.56 -10.68 183.51 -8.73 Q 185.46 -6.78 188.64 -6.78 L 188.64 -6.78 Q 191.82 -6.78 193.77 -8.73 Q 195.72 -10.68 195.72 -13.86 L 195.72 -13.86 L 195.72 -41.28 Q 195.72 -41.58 195.93 -41.79 Q 196.14 -42 196.44 -42 L 196.44 -42 L 203.46 -42 Q 203.76 -42 203.97 -41.79 Q 204.18 -41.58 204.18 -41.28 L 204.18 -41.28 L 204.18 -13.92 Q 204.18 -9.66 202.23 -6.39 Q 200.28 -3.12 196.77 -1.32 Q 193.26 0.48 188.64 0.48 L 188.64 0.48 Z M 213.6 0 Q 213.3 0 213.09 -0.21 Q 212.88 -0.42 212.88 -0.72 L 212.88 -0.72 L 212.88 -41.28 Q 212.88 -41.58 213.09 -41.79 Q 213.3 -42 213.6 -42 L 213.6 -42 L 220.62 -42 Q 220.92 -42 221.13 -41.79 Q 221.34 -41.58 221.34 -41.28 L 221.34 -41.28 L 221.34 -0.72 Q 221.34 -0.42 221.13 -0.21 Q 220.92 0 220.62 0 L 220.62 0 L 213.6 0 Z M 231.12 0 Q 230.82 0 230.61 -0.21 Q 230.4 -0.42 230.4 -0.72 L 230.4 -0.72 L 230.4 -41.28 Q 230.4 -41.58 230.61 -41.79 Q 230.82 -42 231.12 -42 L 231.12 -42 L 238.14 -42 Q 238.44 -42 238.65 -41.79 Q 238.86 -41.58 238.86 -41.28 L 238.86 -41.28 L 238.86 -7.56 Q 238.86 -7.26 239.16 -7.26 L 239.16 -7.26 L 258.78 -7.26 Q 259.08 -7.26 259.29 -7.05 Q 259.5 -6.84 259.5 -6.54 L 259.5 -6.54 L 259.5 -0.72 Q 259.5 -0.42 259.29 -0.21 Q 259.08 0 258.78 0 L 258.78 0 L 231.12 0 Z M 267.18 0 Q 266.88 0 266.67 -0.21 Q 266.46 -0.42 266.46 -0.72 L 266.46 -0.72 L 266.46 -41.28 Q 266.46 -41.58 266.67 -41.79 Q 266.88 -42 267.18 -42 L 267.18 -42 L 282.18 -42 Q 286.68 -42 290.07 -40.41 Q 293.46 -38.82 295.32 -35.94 Q 297.18 -33.06 297.18 -29.28 L 297.18 -29.28 L 297.18 -12.72 Q 297.18 -8.94 295.32 -6.06 Q 293.46 -3.18 290.07 -1.59 Q 286.68 0 282.18 0 L 282.18 0 L 267.18 0 Z M 274.92 -7.56 Q 274.92 -7.26 275.22 -7.26 L 275.22 -7.26 L 282.48 -7.26 Q 285.24 -7.26 286.95 -9.12 Q 288.66 -10.98 288.72 -14.1 L 288.72 -14.1 L 288.72 -27.9 Q 288.72 -31.02 287.01 -32.88 Q 285.3 -34.74 282.42 -34.74 L 282.42 -34.74 L 275.22 -34.74 Q 274.92 -34.74 274.92 -34.44 L 274.92 -34.44 L 274.92 -7.56 Z M 334.44 -35.46 Q 334.44 -35.16 334.23 -34.95 Q 334.02 -34.74 333.72 -34.74 L 333.72 -34.74 L 314.04 -34.74 Q 313.74 -34.74 313.74 -34.44 L 313.74 -34.44 L 313.74 -25.14 Q 313.74 -24.84 314.04 -24.84 L 314.04 -24.84 L 326.94 -24.84 Q 327.24 -24.84 327.45 -24.63 Q 327.66 -24.42 327.66 -24.12 L 327.66 -24.12 L 327.66 -18.3 Q 327.66 -18 327.45 -17.79 Q 327.24 -17.58 326.94 -17.58 L 326.94 -17.58 L 314.04 -17.58 Q 313.74 -17.58 313.74 -17.28 L 313.74 -17.28 L 313.74 -7.56 Q 313.74 -7.26 314.04 -7.26 L 314.04 -7.26 L 333.72 -7.26 Q 334.02 -7.26 334.23 -7.05 Q 334.44 -6.84 334.44 -6.54 L 334.44 -6.54 L 334.44 -0.72 Q 334.44 -0.42 334.23 -0.21 Q 334.02 0 333.72 0 L 333.72 0 L 306 0 Q 305.7 0 305.49 -0.21 Q 305.28 -0.42 305.28 -0.72 L 305.28 -0.72 L 305.28 -41.28 Q 305.28 -41.58 305.49 -41.79 Q 305.7 -42 306 -42 L 306 -42 L 333.72 -42 Q 334.02 -42 334.23 -41.79 Q 334.44 -41.58 334.44 -41.28 L 334.44 -41.28 L 334.44 -35.46 Z M 365.1 0 Q 364.5 0 364.26 -0.54 L 364.26 -0.54 L 356.76 -17.16 Q 356.64 -17.4 356.4 -17.4 L 356.4 -17.4 L 350.82 -17.4 Q 350.52 -17.4 350.52 -17.1 L 350.52 -17.1 L 350.52 -0.72 Q 350.52 -0.42 350.31 -0.21 Q 350.1 0 349.8 0 L 349.8 0 L 342.78 0 Q 342.48 0 342.27 -0.21 Q 342.06 -0.42 342.06 -0.72 L 342.06 -0.72 L 342.06 -41.28 Q 342.06 -41.58 342.27 -41.79 Q 342.48 -42 342.78 -42 L 342.78 -42 L 359.94 -42 Q 363.78 -42 366.69 -40.44 Q 369.6 -38.88 371.19 -36 Q 372.78 -33.12 372.78 -29.34 L 372.78 -29.34 Q 372.78 -25.26 370.74 -22.35 Q 368.7 -19.44 365.04 -18.24 L 365.04 -18.24 Q 364.74 -18.12 364.86 -17.82 L 364.86 -17.82 L 373.02 -0.84 Q 373.14 -0.6 373.14 -0.48 L 373.14 -0.48 Q 373.14 0 372.48 0 L 372.48 0 L 365.1 0 Z M 350.82 -34.74 Q 350.52 -34.74 350.52 -34.44 L 350.52 -34.44 L 350.52 -24.18 Q 350.52 -23.88 350.82 -23.88 L 350.82 -23.88 L 358.68 -23.88 Q 361.2 -23.88 362.79 -25.38 Q 364.38 -26.88 364.38 -29.28 L 364.38 -29.28 Q 364.38 -31.68 362.79 -33.21 Q 361.2 -34.74 358.68 -34.74 L 358.68 -34.74 L 350.82 -34.74 Z" stroke-linecap="round" />
</g>
</g>
</g>
<g transform="matrix(1.9211538461538462 0 0 1.9211538461538462 867.0523589999949 589.2526511427693)" id="tagline-fda83840-cc63-4671-9ebe-e07e530c3726-logo"  >
<g style=""  paint-order="stroke"   >
		<g transform="matrix(1 0 0 1 0 0)" id="tagline-fda83840-cc63-4671-9ebe-e07e530c3726-logo-path-0"  >
<path style="stroke: none; stroke-width: 0; stroke-dasharray: none; stroke-linecap: butt; stroke-dashoffset: 0; stroke-linejoin: miter; stroke-miterlimit: 4; fill: rgb(255,255,255); fill-rule: nonzero; opacity: 1;"  paint-order="stroke"  transform=" translate(-110.715, 4.55)" d="M 4.85 0 L 4.85 -7.54 L 7.71 -7.54 L 7.71 -9.1 L 0.43 -9.1 L 0.43 -7.54 L 3.29 -7.54 L 3.29 0 Z M 14.38 0 L 15.08 -1.82 L 19.16 -1.82 L 19.86 0 L 21.53 0 L 18.02 -9.1 L 16.22 -9.1 L 12.71 0 Z M 15.68 -3.38 L 17.12 -7.11 L 18.56 -3.38 Z M 27.57 0 L 34.33 0 L 34.33 -1.56 L 29.13 -1.56 L 29.13 -9.1 L 27.57 -9.1 Z M 41.94 0 L 41.94 -2.39 L 43.28 -3.82 L 46.85 0 L 48.85 0 L 44.28 -4.9 L 48.2 -9.1 L 46.2 -9.1 L 41.94 -4.54 L 41.94 -9.1 L 40.38 -9.1 L 40.38 0 Z M 67.11 0 L 67.11 -7.54 L 69.97 -7.54 L 69.97 -9.1 L 62.69 -9.1 L 62.69 -7.54 L 65.55 -7.54 L 65.55 0 Z M 80.31 -1.43 C 77.82 -1.43 77.31 -1.95 77.31 -4.55 C 77.31 -7.16 77.83 -7.67 80.31 -7.67 C 82.8 -7.67 83.3 -7.15 83.3 -4.55 C 83.3 -1.94 82.78 -1.43 80.31 -1.43 Z M 75.75 -4.55 C 75.75 -1.21 77.05 0.13 80.31 0.13 C 83.52 0.13 84.86 -1.14 84.86 -4.55 C 84.86 -7.92 83.56 -9.23 80.31 -9.23 C 77.09 -9.23 75.75 -7.96 75.75 -4.55 Z M 103.12 0 L 103.12 -7.54 L 105.98 -7.54 L 105.98 -9.1 L 98.7 -9.1 L 98.7 -7.54 L 101.56 -7.54 L 101.56 0 Z M 113.58 0 L 113.58 -3.77 L 118.65 -3.77 L 118.65 0 L 120.21 0 L 120.21 -9.1 L 118.65 -9.1 L 118.65 -5.33 L 113.58 -5.33 L 113.58 -9.1 L 112.02 -9.1 L 112.02 0 Z M 126.26 0 L 133.02 0 L 133.02 -1.56 L 127.82 -1.56 L 127.82 -3.77 L 131.72 -3.77 L 131.72 -5.33 L 127.82 -5.33 L 127.82 -7.54 L 133.02 -7.54 L 133.02 -9.1 L 126.26 -9.1 Z M 148.41 0 L 148.41 -3.77 L 152.31 -3.77 L 152.31 -5.33 L 148.41 -5.33 L 148.41 -7.54 L 153.61 -7.54 L 153.61 -9.1 L 146.85 -9.1 L 146.85 0 Z M 165.96 -9.1 L 165.96 -3.9 C 165.96 -1.81 165.57 -1.43 163.58 -1.43 C 161.58 -1.43 161.21 -1.83 161.21 -3.9 L 161.21 -9.1 L 159.65 -9.1 L 159.65 -3.9 C 159.65 -1.12 160.76 0.13 163.58 0.13 C 166.31 0.13 167.52 -1.01 167.52 -3.9 L 167.52 -9.1 Z M 177.98 0 L 177.98 -7.54 L 180.84 -7.54 L 180.84 -9.1 L 173.56 -9.1 L 173.56 -7.54 L 176.42 -7.54 L 176.42 0 Z M 193.19 -9.1 L 193.19 -3.9 C 193.19 -1.81 192.8 -1.43 190.81 -1.43 C 188.81 -1.43 188.45 -1.83 188.45 -3.9 L 188.45 -9.1 L 186.89 -9.1 L 186.89 -3.9 C 186.89 -1.12 187.99 0.13 190.81 0.13 C 193.54 0.13 194.75 -1.01 194.75 -3.9 L 194.75 -9.1 Z M 202.36 0 L 202.36 -3.12 L 204.65 -3.12 L 206.4 0 L 208.2 0 L 206.35 -3.29 C 207.48 -3.64 208.09 -4.58 208.09 -6.11 C 208.09 -8.05 207.13 -9.1 205.1 -9.1 L 200.8 -9.1 L 200.8 0 Z M 202.36 -4.68 L 202.36 -7.54 L 205.1 -7.54 C 206.34 -7.54 206.53 -7.33 206.53 -6.11 C 206.53 -4.88 206.32 -4.68 205.1 -4.68 Z M 214.24 0 L 221 0 L 221 -1.56 L 215.8 -1.56 L 215.8 -3.77 L 219.7 -3.77 L 219.7 -5.33 L 215.8 -5.33 L 215.8 -7.54 L 221 -7.54 L 221 -9.1 L 214.24 -9.1 Z" stroke-linecap="round" />
</g>
</g>
</g>
</svg>