<svg width="887" height="214" viewBox="0 0 887 214" fill="none" xmlns="http://www.w3.org/2000/svg">
<path d="M43.2776 42.9775H128.49V85.5838H43.2776V42.9775Z" fill="black"/>
<path d="M85.8839 170.796H128.49V213.403H85.8839V170.796Z" fill="black"/>
<path d="M43.2784 128.19H43.2785H85.8848V170.796H43.2785H0.672157V128.19H0.672071V85.5837H43.2784V128.19Z" fill="black"/>
<path d="M0.671043 0.371094H43.2773V42.9774H0.671043V0.371094Z" fill="black"/>
<path d="M219.272 76.9265C219.272 76.5422 219.406 76.2156 219.675 75.9467C219.944 75.6777 220.271 75.5432 220.655 75.5432H234.142C234.526 75.5432 234.852 75.6777 235.121 75.9467C235.39 76.2156 235.525 76.5422 235.525 76.9265V154.848C235.525 155.233 235.39 155.559 235.121 155.828C234.852 156.097 234.526 156.232 234.142 156.232H221.116C220.348 156.232 219.81 155.924 219.502 155.31L189.648 105.974C189.494 105.744 189.34 105.648 189.187 105.686C189.033 105.725 188.956 105.897 188.956 106.205L189.187 154.848C189.187 155.233 189.052 155.559 188.783 155.828C188.514 156.097 188.188 156.232 187.803 156.232H174.317C173.933 156.232 173.606 156.097 173.337 155.828C173.068 155.559 172.934 155.233 172.934 154.848V76.9265C172.934 76.5422 173.068 76.2156 173.337 75.9467C173.606 75.6777 173.933 75.5432 174.317 75.5432H187.342C188.111 75.5432 188.649 75.8506 188.956 76.4654L218.695 125.57C218.849 125.801 219.003 125.897 219.157 125.858C219.31 125.82 219.387 125.647 219.387 125.34L219.272 76.9265ZM285.552 75.428C290.623 75.428 295.081 76.4654 298.923 78.5402C302.765 80.6151 305.743 83.5545 307.856 87.3583C309.969 91.1622 311.026 95.5232 311.026 100.441C311.026 105.283 309.931 109.548 307.741 113.236C305.551 116.925 302.477 119.787 298.519 121.824C294.562 123.86 290.009 124.878 284.86 124.878H268.492C268.108 124.878 267.915 125.071 267.915 125.455V154.848C267.915 155.233 267.781 155.559 267.512 155.828C267.243 156.097 266.916 156.232 266.532 156.232H253.046C252.661 156.232 252.335 156.097 252.066 155.828C251.797 155.559 251.662 155.233 251.662 154.848V76.8112C251.662 76.427 251.797 76.1004 252.066 75.8314C252.335 75.5625 252.661 75.428 253.046 75.428H285.552ZM283.131 111.853C286.666 111.853 289.509 110.835 291.661 108.798C293.813 106.762 294.888 104.092 294.888 100.787C294.888 97.406 293.813 94.6779 291.661 92.6031C289.509 90.5282 286.666 89.4908 283.131 89.4908H268.492C268.108 89.4908 267.915 89.6829 267.915 90.0672V111.277C267.915 111.661 268.108 111.853 268.492 111.853H283.131ZM352.754 157.154C346.76 157.154 341.496 155.982 336.962 153.638C332.428 151.294 328.931 148.009 326.472 143.783C324.013 139.556 322.784 134.676 322.784 129.143V102.516C322.784 96.9833 324.013 92.1036 326.472 87.8771C328.931 83.6505 332.428 80.3846 336.962 78.0792C341.496 75.7738 346.76 74.6211 352.754 74.6211C358.671 74.6211 363.877 75.7161 368.373 77.9063C372.868 80.0964 376.365 83.2087 378.862 87.2431C381.36 91.2775 382.608 95.9459 382.608 101.248C382.608 101.94 382.147 102.363 381.225 102.516L367.739 103.323H367.508C366.74 103.323 366.355 102.9 366.355 102.055C366.355 97.9823 365.107 94.7164 362.609 92.2573C360.112 89.7982 356.826 88.5687 352.754 88.5687C348.604 88.5687 345.28 89.7982 342.783 92.2573C340.285 94.7164 339.037 97.9823 339.037 102.055V129.835C339.037 133.831 340.285 137.059 342.783 139.518C345.28 141.977 348.604 143.206 352.754 143.206C356.826 143.206 360.112 141.977 362.609 139.518C365.107 137.059 366.355 133.831 366.355 129.835C366.355 128.99 366.816 128.567 367.739 128.567L381.225 129.143C381.609 129.143 381.936 129.259 382.205 129.489C382.474 129.72 382.608 129.989 382.608 130.296C382.608 135.599 381.36 140.286 378.862 144.359C376.365 148.432 372.868 151.583 368.373 153.811C363.877 156.04 358.671 157.154 352.754 157.154ZM472.057 114.158C471.596 114.389 471.596 114.62 472.057 114.85C479.358 118.616 483.008 124.878 483.008 133.639C483.008 141.093 480.472 146.722 475.4 150.526C470.328 154.33 463.681 156.232 455.458 156.232H425.604C425.219 156.232 424.893 156.097 424.624 155.828C424.355 155.559 424.221 155.233 424.221 154.848V76.9265C424.221 76.5422 424.355 76.2156 424.624 75.9467C424.893 75.6777 425.219 75.5432 425.604 75.5432H454.536C472.749 75.5432 481.855 82.9205 481.855 97.6749C481.855 105.36 478.589 110.854 472.057 114.158ZM441.05 89.4908C440.666 89.4908 440.473 89.6829 440.473 90.0672V108.049C440.473 108.433 440.666 108.626 441.05 108.626H454.536C458.148 108.626 460.953 107.78 462.951 106.09C464.949 104.399 465.948 102.094 465.948 99.1734C465.948 96.1764 464.949 93.8134 462.951 92.0844C460.953 90.3553 458.148 89.4908 454.536 89.4908H441.05ZM455.458 142.169C458.993 142.169 461.76 141.266 463.758 139.46C465.756 137.654 466.755 135.176 466.755 132.025C466.755 128.874 465.756 126.396 463.758 124.59C461.76 122.784 458.955 121.881 455.343 121.881H441.05C440.666 121.881 440.473 122.074 440.473 122.458V141.593C440.473 141.977 440.666 142.169 441.05 142.169H455.458ZM528.309 157.154C522.391 157.154 517.185 156.001 512.69 153.696C508.194 151.39 504.698 148.144 502.2 143.956C499.703 139.767 498.454 134.945 498.454 129.489V76.9265C498.454 76.5422 498.588 76.2156 498.857 75.9467C499.126 75.6777 499.453 75.5432 499.837 75.5432H513.324C513.708 75.5432 514.034 75.6777 514.303 75.9467C514.572 76.2156 514.707 76.5422 514.707 76.9265V129.605C514.707 133.677 515.956 136.963 518.453 139.46C520.951 141.958 524.236 143.206 528.309 143.206C532.381 143.206 535.667 141.958 538.164 139.46C540.662 136.963 541.91 133.677 541.91 129.605V76.9265C541.91 76.5422 542.045 76.2156 542.314 75.9467C542.583 75.6777 542.909 75.5432 543.294 75.5432H556.78C557.164 75.5432 557.491 75.6777 557.76 75.9467C558.029 76.2156 558.163 76.5422 558.163 76.9265V129.489C558.163 134.945 556.915 139.767 554.417 143.956C551.92 148.144 548.423 151.39 543.928 153.696C539.432 156.001 534.226 157.154 528.309 157.154ZM576.261 156.232C575.876 156.232 575.55 156.097 575.281 155.828C575.012 155.559 574.877 155.233 574.877 154.848V76.9265C574.877 76.5422 575.012 76.2156 575.281 75.9467C575.55 75.6777 575.876 75.5432 576.261 75.5432H589.747C590.131 75.5432 590.458 75.6777 590.727 75.9467C590.996 76.2156 591.13 76.5422 591.13 76.9265V154.848C591.13 155.233 590.996 155.559 590.727 155.828C590.458 156.097 590.131 156.232 589.747 156.232H576.261ZM609.919 156.232C609.535 156.232 609.208 156.097 608.939 155.828C608.67 155.559 608.536 155.233 608.536 154.848V76.9265C608.536 76.5422 608.67 76.2156 608.939 75.9467C609.208 75.6777 609.535 75.5432 609.919 75.5432H623.406C623.79 75.5432 624.117 75.6777 624.386 75.9467C624.654 76.2156 624.789 76.5422 624.789 76.9265V141.708C624.789 142.092 624.981 142.284 625.365 142.284H663.058C663.443 142.284 663.769 142.419 664.038 142.688C664.307 142.957 664.442 143.283 664.442 143.667V154.848C664.442 155.233 664.307 155.559 664.038 155.828C663.769 156.097 663.443 156.232 663.058 156.232H609.919ZM679.196 156.232C678.812 156.232 678.485 156.097 678.216 155.828C677.947 155.559 677.813 155.233 677.813 154.848V76.9265C677.813 76.5422 677.947 76.2156 678.216 75.9467C678.485 75.6777 678.812 75.5432 679.196 75.5432H708.013C713.777 75.5432 718.829 76.5615 723.171 78.5979C727.513 80.6343 730.875 83.4968 733.257 87.1854C735.64 90.8741 736.831 95.139 736.831 99.9803V131.795C736.831 136.636 735.64 140.901 733.257 144.59C730.875 148.278 727.513 151.141 723.171 153.177C718.829 155.213 713.777 156.232 708.013 156.232H679.196ZM694.066 141.708C694.066 142.092 694.258 142.284 694.642 142.284H708.59C712.125 142.284 714.987 141.093 717.177 138.711C719.367 136.329 720.501 133.139 720.578 129.143V102.632C720.578 98.6355 719.483 95.4464 717.293 93.0642C715.102 90.6819 712.163 89.4908 708.474 89.4908H694.642C694.258 89.4908 694.066 89.6829 694.066 90.0672V141.708ZM808.413 88.1076C808.413 88.4918 808.278 88.8184 808.009 89.0874C807.74 89.3563 807.414 89.4908 807.03 89.4908H769.221C768.837 89.4908 768.645 89.6829 768.645 90.0672V107.934C768.645 108.318 768.837 108.51 769.221 108.51H794.004C794.388 108.51 794.715 108.645 794.984 108.914C795.253 109.183 795.387 109.509 795.387 109.893V121.075C795.387 121.459 795.253 121.785 794.984 122.054C794.715 122.323 794.388 122.458 794.004 122.458H769.221C768.837 122.458 768.645 122.65 768.645 123.034V141.708C768.645 142.092 768.837 142.284 769.221 142.284H807.03C807.414 142.284 807.74 142.419 808.009 142.688C808.278 142.957 808.413 143.283 808.413 143.667V154.848C808.413 155.233 808.278 155.559 808.009 155.828C807.74 156.097 807.414 156.232 807.03 156.232H753.775C753.391 156.232 753.064 156.097 752.795 155.828C752.526 155.559 752.392 155.233 752.392 154.848V76.9265C752.392 76.5422 752.526 76.2156 752.795 75.9467C753.064 75.6777 753.391 75.5432 753.775 75.5432H807.03C807.414 75.5432 807.74 75.6777 808.009 75.9467C808.278 76.2156 808.413 76.5422 808.413 76.9265V88.1076ZM867.315 156.232C866.547 156.232 866.009 155.886 865.702 155.194L851.293 123.265C851.139 122.957 850.909 122.804 850.601 122.804H839.881C839.497 122.804 839.305 122.996 839.305 123.38V154.848C839.305 155.233 839.171 155.559 838.902 155.828C838.633 156.097 838.306 156.232 837.922 156.232H824.435C824.051 156.232 823.724 156.097 823.455 155.828C823.186 155.559 823.052 155.233 823.052 154.848V76.9265C823.052 76.5422 823.186 76.2156 823.455 75.9467C823.724 75.6777 824.051 75.5432 824.435 75.5432H857.402C862.32 75.5432 866.643 76.5422 870.37 78.5402C874.097 80.5382 876.979 83.3816 879.015 87.0702C881.052 90.7588 882.07 95.0237 882.07 99.8651C882.07 105.091 880.763 109.567 878.151 113.294C875.538 117.021 871.888 119.653 867.2 121.19C866.816 121.344 866.701 121.613 866.854 121.997L882.531 154.618C882.685 154.925 882.762 155.156 882.762 155.31C882.762 155.924 882.339 156.232 881.494 156.232H867.315ZM839.881 89.4908C839.497 89.4908 839.305 89.6829 839.305 90.0672V109.778C839.305 110.162 839.497 110.355 839.881 110.355H854.982C858.209 110.355 860.841 109.394 862.878 107.473C864.914 105.552 865.932 103.054 865.932 99.9803C865.932 96.9065 864.914 94.3898 862.878 92.4302C860.841 90.4706 858.209 89.4908 854.982 89.4908H839.881Z" fill="black"/>
<path d="M464.454 193.124V178.408H470.025V175.372H455.828V178.408H461.399V193.124H464.454ZM483.051 193.124L484.415 189.57H492.388L493.752 193.124H496.998L490.14 175.372H486.643L479.804 193.124H483.051ZM485.587 186.534L488.392 179.253L491.216 186.534H485.587ZM508.794 193.124H521.993V190.089H511.83V175.372H508.794V193.124ZM536.824 193.124V188.456L539.437 185.67L546.411 193.124H550.33L541.396 183.557L549.062 175.372H545.143L536.824 184.267V175.372H533.789V193.124H536.824ZM585.948 193.124V178.408H591.519V175.372H577.322V178.408H582.893V193.124H585.948ZM611.73 190.338C606.85 190.338 605.87 189.32 605.87 184.248C605.87 179.138 606.869 178.158 611.73 178.158C616.571 178.158 617.551 179.176 617.551 184.248C617.551 189.339 616.552 190.338 611.73 190.338ZM602.816 184.248C602.816 190.761 605.352 193.374 611.73 193.374C617.993 193.374 620.605 190.895 620.605 184.248C620.605 177.678 618.07 175.104 611.73 175.104C605.428 175.104 602.816 177.601 602.816 184.248ZM656.224 193.124V178.408H661.814V175.372H647.598V178.408H653.188V193.124H656.224ZM676.646 193.124V185.766H686.539V193.124H689.594V175.372H686.539V182.73H676.646V175.372H673.61V193.124H676.646ZM701.39 193.124H714.569V190.089H704.425V185.766H712.033V182.73H704.425V178.408H714.569V175.372H701.39V193.124ZM744.616 193.124V185.766H752.224V182.73H744.616V178.408H754.76V175.372H741.561V193.124H744.616ZM778.87 175.372V185.516C778.87 189.589 778.102 190.338 774.221 190.338C770.321 190.338 769.61 189.551 769.61 185.516V175.372H766.556V185.516C766.556 190.934 768.726 193.374 774.221 193.374C779.543 193.374 781.906 191.145 781.906 185.516V175.372H778.87ZM802.327 193.124V178.408H807.918V175.372H793.701V178.408H799.292V193.124H802.327ZM832.009 175.372V185.516C832.009 189.589 831.26 190.338 827.379 190.338C823.46 190.338 822.749 189.551 822.749 185.516V175.372H819.714V185.516C819.714 190.934 821.866 193.374 827.379 193.374C832.701 193.374 835.064 191.145 835.064 185.516V175.372H832.009ZM849.895 193.124V187.034H854.371L857.791 193.124H861.288L857.695 186.707C859.904 186.016 861.096 184.191 861.096 181.194C861.096 177.428 859.213 175.372 855.255 175.372H846.86V193.124H849.895ZM849.895 183.998V178.408H855.255C857.676 178.408 858.041 178.811 858.041 181.194C858.041 183.614 857.637 183.998 855.255 183.998H849.895ZM873.084 193.124H886.282V190.089H876.138V185.766H883.746V182.73H876.138V178.408H886.282V175.372H873.084V193.124Z" fill="black"/>
</svg>
